<svg xmlns="http://www.w3.org/2000/svg" width="159" height="44" fill="none"><g clip-path="url(#a)"><path fill="#006A3B" d="m8.85 16.445-8.39 7.53c-.29.26-.46.63-.46 1.02v17.55c0 .75.61 1.36 1.37 1.36h16.79c.75 0 1.36-.61 1.36-1.36v-17.55c0-.39-.16-.76-.45-1.02l-8.39-7.53a1.35 1.35 0 0 0-1.82 0h-.01Z"/><path fill="#04A64B" d="m29.46 7.875-8.4 7.54c-.29.26-.45.63-.45 1.02v26.11c0 .75.61 1.37 1.37 1.37h16.79c.75 0 1.36-.61 1.36-1.37v-26.11c0-.39-.16-.76-.45-1.02l-8.4-7.53a1.35 1.35 0 0 0-1.82 0v-.01ZM50.07.445l-8.4 7.53c-.29.26-.45.63-.45 1.02v33.54c0 .75.61 1.36 1.36 1.36h16.79c.75 0 1.36-.61 1.36-1.36V8.995c0-.39-.16-.76-.45-1.02L51.89.445c-.52-.46-1.3-.46-1.82 0Z"/><path fill="#EEEFEC" d="M87.31 38.615H75.79l-2.03 5.28H63.37l13.25-30.3h10.04l13.25 30.3H89.35l-2.03-5.28h-.01Zm-2.82-7.36-2.94-7.62-2.95 7.62h5.89ZM115.45 36.285h-2.77v7.62h-10.22v-30.31h14.59c8.43 0 13.81 4.41 13.81 11.43 0 4.37-2.08 7.66-5.72 9.53l6.36 9.35h-10.92l-5.14-7.62h.01Zm.95-14.81h-3.72v7.1h3.72c2.81 0 4.16-1.34 4.16-3.55s-1.34-3.55-4.16-3.55ZM159 36.195v7.71h-25.2v-30.31H159v7.71h-15.15v3.55h12.81v7.36h-12.81v3.98H159Z"/></g><defs><clipPath id="a"><path fill="#fff" d="M0 .095h159v43.81H0z"/></clipPath></defs></svg>