<svg width="1060" height="532" viewBox="0 0 1060 532" fill="none" xmlns="http://www.w3.org/2000/svg">
<g clip-path="url(#clip0_843_4912)">
<path d="M344.311 -6.98006e-06C61.0088 257.515 240.976 93.1641 240.976 93.1641C228.36 104.81 221 120.69 221 137.629C221 137.629 221 -28.2726 221 532C506 532 610.5 532 1060 532C1060 -123.586 1060 137.629 1060 137.629C1060 120.69 1052.64 104.81 1040.02 93.1641L937 0.00924446C697 0.00924446 595.5 0.00924446 344.311 -6.98006e-06Z" fill="url(#paint0_linear_843_4912)"/>
<path d="M427.548 218.087C427.548 218.087 952.476 -257.945 81.3899 532C457.5 532 506.401 532 853.571 532L506.401 218.087C484.322 197.972 450.678 197.972 427.548 218.087Z" fill="url(#paint1_linear_843_4912)"/>
</g>
<defs>
<linearGradient id="paint0_linear_843_4912" x1="640.5" y1="855" x2="640.5" y2="-4.99998" gradientUnits="userSpaceOnUse">
<stop stop-color="#04A64B"/>
<stop offset="1" stop-color="#95C11F"/>
</linearGradient>
<linearGradient id="paint1_linear_843_4912" x1="467.5" y1="726.5" x2="467.5" y2="215" gradientUnits="userSpaceOnUse">
<stop stop-color="#04A64B"/>
<stop offset="1" stop-color="#95C11F"/>
</linearGradient>
<clipPath id="clip0_843_4912">
<rect width="1060" height="532" fill="white"/>
</clipPath>
</defs>
</svg>
