<?xml version="1.0" encoding="UTF-8"?> <svg xmlns="http://www.w3.org/2000/svg" width="390" height="299" fill="none"><g stroke-miterlimit="10" stroke-width="1.5" clip-path="url(#a)"><path fill="url(#b)" stroke="url(#c)" d="m7.905 14.325-126.857 115.103c-4.452 4.11-7.048 9.716-7.048 15.695v267.949c0 11.585 9.273 20.928 20.772 20.928h254.456c11.499 0 20.772-9.343 20.772-20.928V145.123c0-5.979-2.596-11.585-7.048-15.695L35.724 14.325c-7.79-7.1-19.659-7.1-27.82 0Z"></path><path fill="#000D00" stroke="url(#d)" d="M178.762 114.255 5.619 271.065C-.456 276.665-4 284.302-4 292.448v365.041C-4 673.272 8.657 686 24.35 686H371.65C387.343 686 400 673.272 400 657.489V292.448c0-8.146-3.544-15.783-9.619-21.383l-173.649-156.81c-10.632-9.673-26.832-9.673-37.97 0Z"></path></g><defs><linearGradient id="b" x1="22" x2="22" y1="9" y2="221.5" gradientUnits="userSpaceOnUse"><stop stop-color="#95C11F"></stop><stop offset="1" stop-color="#04A64B"></stop></linearGradient><linearGradient id="c" x1="-52.882" x2="96.882" y1="83.922" y2="83.922" gradientUnits="userSpaceOnUse"><stop stop-color="#000D00" stop-opacity="0"></stop><stop offset=".2" stop-color="#F5F5F5"></stop><stop offset=".4" stop-color="#95C11F"></stop><stop offset=".6" stop-color="#04A64B"></stop><stop offset=".8" stop-color="#006A3B"></stop><stop offset="1" stop-color="#000D00"></stop></linearGradient><linearGradient id="d" x1="198" x2="198" y1="269.543" y2="107" gradientUnits="userSpaceOnUse"><stop stop-color="#F5F5F5" stop-opacity="0"></stop><stop offset=".2" stop-color="#F5F5F5"></stop><stop offset=".4" stop-color="#95C11F"></stop><stop offset=".6" stop-color="#04A64B"></stop><stop offset=".8" stop-color="#006A3B"></stop><stop offset="1" stop-color="#F5F5F5"></stop></linearGradient><clipPath id="a"><path fill="#fff" d="M0 0h390v299H0z"></path></clipPath></defs></svg> 