<?xml version="1.0" encoding="UTF-8"?> <svg xmlns="http://www.w3.org/2000/svg" width="489" height="475" viewBox="0 0 489 475" fill="none"><g opacity="0.1"><path d="M106.808 460.75L382.192 460.75C433.22 460.75 474.587 419.482 474.587 368.574L474.587 93.8446C474.587 42.9374 433.22 1.66891 382.192 1.66891L106.808 1.66891C55.7793 1.66891 14.4125 42.9374 14.4125 93.8446L14.4125 368.574C14.4125 419.482 55.7793 460.75 106.808 460.75Z" fill="url(#paint0_linear_548_4888)" stroke="url(#paint1_linear_548_4888)" stroke-width="0.25" stroke-miterlimit="10"></path><path d="M260.585 148.534L220.951 104.5C219.535 102.96 217.605 102.061 215.546 102.061H123.279C119.29 102.061 116.073 105.271 116.073 109.25V197.318C116.073 201.298 119.29 204.507 123.279 204.507H215.546C217.605 204.507 219.535 203.608 220.951 202.068L260.585 158.034C263.03 155.338 263.03 151.23 260.585 148.406V148.534Z" fill="#EEEFEC"></path><path d="M326.086 246.102L370.224 206.561C371.769 205.149 372.669 203.223 372.669 201.169V109.122C372.669 105.142 369.452 101.933 365.463 101.933H277.186C273.196 101.933 269.979 105.142 269.979 109.122V201.169C269.979 203.223 270.88 205.149 272.424 206.561L316.563 246.102C319.265 248.541 323.383 248.541 326.214 246.102H326.086Z" fill="#EEEFEC"></path><path d="M228.286 312.216L267.92 356.25C269.336 357.79 271.266 358.689 273.325 358.689H365.592C369.581 358.689 372.798 355.48 372.798 351.5V263.432C372.798 259.453 369.581 256.243 365.592 256.243H273.325C271.266 256.243 269.336 257.142 267.92 258.682L228.286 302.716C225.841 305.412 225.841 309.52 228.286 312.345V312.216Z" fill="#EEEFEC"></path><path d="M162.657 216.061L118.518 255.601C116.974 257.014 116.073 258.939 116.073 260.993V353.041C116.073 357.02 119.29 360.23 123.279 360.23H211.557C215.546 360.23 218.763 357.02 218.763 353.041V260.993C218.763 258.939 217.862 257.014 216.318 255.601L172.179 216.061C169.477 213.622 165.359 213.622 162.528 216.061H162.657Z" fill="#EEEFEC"></path></g><defs><linearGradient id="paint0_linear_548_4888" x1="244.5" y1="1.66891" x2="244.5" y2="460.75" gradientUnits="userSpaceOnUse"><stop stop-color="#04A64B"></stop><stop offset="1" stop-color="#95C11F"></stop></linearGradient><linearGradient id="paint1_linear_548_4888" x1="385.409" y1="474.872" x2="104.339" y2="-13.1602" gradientUnits="userSpaceOnUse"><stop stop-color="#9DA594"></stop><stop offset="1" stop-color="#022005"></stop></linearGradient></defs></svg> 